<svg xmlns="http://www.w3.org/2000/svg" width="32.106" height="26.16" viewBox="0 0 32.106 26.16">
  <g id="Grupo_1988" data-name="Grupo 1988" transform="translate(-33.592 -182.42)">
    <path id="Caminho_366" data-name="Caminho 366" d="M317.147,239.385h-27.32a2.4,2.4,0,0,0-2.394,2.394V260.82a2.4,2.4,0,0,0,2.394,2.394h1.15v.255a2.076,2.076,0,0,0,4.151,0v-.255h16.667v.25a2.075,2.075,0,1,0,4.15,0v-.25h1.2a2.4,2.4,0,0,0,2.394-2.394V241.779a2.4,2.4,0,0,0-2.392-2.394Zm-23.5,24.084a.6.6,0,0,1-1.2,0v-.255h1.2Zm20.817,0a.6.6,0,0,1-1.2,0v-.25h1.2Zm3.6-2.644a.919.919,0,0,1-.918.918h-27.32a.919.919,0,0,1-.918-.918V241.779a.919.919,0,0,1,.918-.918h27.32a.919.919,0,0,1,.918.918Z" transform="translate(-253.841 -56.965)" fill="#4f5257"/>
    <path id="Caminho_367" data-name="Caminho 367" d="M317.769,245.922H296.586a1.89,1.89,0,0,0-1.888,1.887V261.43a1.89,1.89,0,0,0,1.888,1.888h21.183a1.89,1.89,0,0,0,1.888-1.888V247.809A1.89,1.89,0,0,0,317.769,245.922Zm.412,15.509a.412.412,0,0,1-.412.412H296.586a.412.412,0,0,1-.412-.412V247.809a.412.412,0,0,1,.412-.411h21.183a.412.412,0,0,1,.412.411Z" transform="translate(-257.532 -60.285)" fill="#4f5257"/>
  </g>
</svg>
