<svg xmlns="http://www.w3.org/2000/svg" width="38.906" height="38.5" viewBox="0 0 38.906 38.5">
  <g id="Grupo_96" data-name="Grupo 96" transform="translate(-722.094 -383)">
    <g id="entertainment_multimedia_photo" data-name="entertainment/multimedia/photo" transform="translate(448.094 1282.687)">
      <path id="Fill-5" d="M13.875,10.251a1.812,1.812,0,1,0,1.812,1.812,1.814,1.814,0,0,0-1.812-1.812Zm0,5.437A3.625,3.625,0,1,1,17.5,12.063,3.629,3.629,0,0,1,13.875,15.688ZM9.344,19.313a.91.91,0,0,1,.642.265l4.736,4.736L23.148,14.2a.936.936,0,0,1,1.392,0L32,23.154V4.813H4.813V23.469L8.7,19.578A.91.91,0,0,1,9.344,19.313ZM4.813,32H32V25.985L23.844,16.2,15.478,26.237a.906.906,0,0,1-1.338.062l-4.8-4.8L4.813,26.032Zm28.093,1.812h-29A.907.907,0,0,1,3,32.907v-29A.907.907,0,0,1,3.907,3h29a.907.907,0,0,1,.906.906v29A.907.907,0,0,1,32.906,33.813Z" transform="translate(271 -895)" fill="#7241dc" fill-rule="evenodd"/>
    </g>
    <g id="Elipse_15" data-name="Elipse 15" transform="translate(744 383)" fill="#fff" stroke="#7241dc" stroke-width="2">
      <circle cx="8.5" cy="8.5" r="8.5" stroke="none"/>
      <circle cx="8.5" cy="8.5" r="7.5" fill="none"/>
    </g>
    <path id="Caminho_714" data-name="Caminho 714" d="M7.537,3.4H4.855V.726A.726.726,0,1,0,3.4.726V3.4H.726a.726.726,0,1,0,0,1.452H3.4V7.536a.726.726,0,1,0,1.452,0V4.855H7.536a.726.726,0,1,0,0-1.452Z" transform="translate(748.356 387.369)" fill="#7241dc"/>
  </g>
</svg>
