<svg xmlns="http://www.w3.org/2000/svg" width="21.429" height="27.688" viewBox="0 0 21.429 27.688">
  <g id="users" transform="translate(-0.004 0.004)">
    <g id="Grupo_24" data-name="Grupo 24" transform="translate(4.374 -0.004)">
      <path id="Caminho_372" data-name="Caminho 372" d="M135.309,232.044a6.341,6.341,0,1,1,6.341-6.341A6.341,6.341,0,0,1,135.309,232.044Zm0-11.122a4.781,4.781,0,1,0,4.781,4.781,4.781,4.781,0,0,0-4.781-4.781Z" transform="translate(-128.968 -219.362)" fill="#4f5257"/>
    </g>
    <g id="Grupo_25" data-name="Grupo 25" transform="translate(0.004 13.753)">
      <path id="Caminho_373" data-name="Caminho 373" d="M140.365,259.743H122.186a1.625,1.625,0,0,1-1.624-1.624v-.385c0-5.5,2.806-11.924,10.715-11.924s10.715,6.423,10.715,11.924v.385a1.625,1.625,0,0,1-1.627,1.624Zm-9.091-12.371c-8.713,0-9.155,8.633-9.155,10.364v.385a.064.064,0,0,0,.064.064h18.179a.064.064,0,0,0,.064-.064v-.385c0-1.731-.438-10.365-9.151-10.365Z" transform="translate(-120.562 -245.811)" fill="#4f5257"/>
    </g>
  </g>
</svg>
