<svg xmlns="http://www.w3.org/2000/svg" width="10" height="10" viewBox="0 0 10 10">
  <g id="Grupo_121" data-name="Grupo 121" transform="translate(-666 -669)">
    <circle id="Elipse_18" data-name="Elipse 18" cx="5" cy="5" r="5" transform="translate(666 669)" fill="#ff6961"/>
    <path id="Caminho_23" data-name="Caminho 23" d="M1.964-4.9,1.8-.8H.74L.586-4.9Zm-.681,6.05a.772.772,0,0,1-.548-.2A.643.643,0,0,1,.52.459a.622.622,0,0,1,.218-.49.8.8,0,0,1,.546-.191.776.776,0,0,1,.544.193.632.632,0,0,1,.212.488.646.646,0,0,1-.21.494A.769.769,0,0,1,1.284,1.148Z" transform="translate(669.721 675.877)" fill="#fff"/>
  </g>
</svg>
