<svg xmlns="http://www.w3.org/2000/svg" width="33.924" height="31.482" viewBox="0 0 33.924 31.482">
  <path id="Caminho_361" data-name="Caminho 361" d="M169.261,265.273H161.6v-8.685a.349.349,0,0,0-.348-.348h-3.928a.349.349,0,0,0-.349.348v8.685h-7.39a3.056,3.056,0,0,1-3.053-3.053v-9.044H144.98a2.544,2.544,0,0,1-1.873-.826,2.455,2.455,0,0,1-.637-1.871,3.058,3.058,0,0,1,.882-1.884l13.911-13.911a3.055,3.055,0,0,1,4.317,0l13.911,13.911a3.029,3.029,0,0,1,.894,2.175,2.471,2.471,0,0,1-2.51,2.406h-1.563v9.044A3.056,3.056,0,0,1,169.261,265.273Zm-5.855-1.8h5.855a1.251,1.251,0,0,0,1.25-1.25v-10.85h3.366a.685.685,0,0,0,.707-.612,1.241,1.241,0,0,0-.365-.891l-13.911-13.911a1.251,1.251,0,0,0-1.768,0L144.631,249.87a1.236,1.236,0,0,0-.361.771.647.647,0,0,0,.172.493.738.738,0,0,0,.542.239h3.355V262.22a1.251,1.251,0,0,0,1.25,1.25h5.587v-6.882a2.154,2.154,0,0,1,2.152-2.151h3.928a2.154,2.154,0,0,1,2.151,2.151Z" transform="translate(-142.461 -233.791)" fill="#4f5257"/>
</svg>
