<?xml version="1.0" encoding="utf-8"?>
<!-- Generator: Adobe Illustrator 25.4.1, SVG Export Plug-In . SVG Version: 6.00 Build 0)  -->
<svg version="1.1" id="Camada_1" xmlns="http://www.w3.org/2000/svg" xmlns:xlink="http://www.w3.org/1999/xlink" x="0px" y="0px"
	 viewBox="0 0 121.8 43.1" style="enable-background:new 0 0 121.8 43.1;" xml:space="preserve">
<style type="text/css">
	.st0{fill:#7241DC;}
</style>
<g id="Grupo_3" transform="translate(-1546.438 -1676.64)">
	<path id="Caminho_1" class="st0" d="M1568.3,1676.6c-0.4,0-0.8,0.3-0.8,0.8s0.3,0.8,0.8,0.8c11,0.2,19.8,9.3,19.7,20.3
		c0,1.5-0.2,3-0.6,4.4c-0.1,0.5-0.6,0.8-1.1,0.7c-0.2,0-0.4-0.2-0.5-0.3l-3.1-3.8c-0.2-0.3-0.3-0.7-0.3-1.1v-1.9c0-0.1,0-0.2,0-0.4
		c0.1-0.9-0.1-1.8-0.6-2.5c-0.6-0.5-1.3-0.8-2.1-0.7c-1.5,0-2.9,0.9-3.3,2.4c-0.3,0.8-0.4,1.6-0.4,2.4v5.8c0,0,0,0,0,0h0l-13.1,0
		c-1.6,0-2.9,1.3-2.9,2.9v0.2c0,1.6,1.3,2.9,2.9,2.9h4.3c-0.6,1.4,0,3,1.4,3.6c0.4,0.2,0.7,0.2,1.1,0.2h1.7c-0.6,1.4,0,3,1.4,3.6
		c0.4,0.2,0.7,0.2,1.1,0.2h3.2c2.6-1.1,3.8-4,2.7-6.6c-0.5-1.2-1.5-2.2-2.7-2.7h-7.4c0,0,0,0-0.1,0h-6.7c-0.7,0-1.2-0.6-1.2-1.2
		v-0.2c0-0.7,0.6-1.2,1.2-1.2l13.1,0c0.9,0,1.6-0.7,1.6-1.6v-5.9c0-0.6,0.1-1.2,0.3-1.8c0.2-0.8,1-1.4,1.8-1.3
		c0.3,0,0.6,0.1,0.9,0.2c0.2,0.2,0.2,0.8,0.2,1.3c0,0.2,0,0.3,0,0.4v1.9c0,0.7,0.2,1.5,0.6,2.1l0,0l3.1,3.8c0.9,1.1,2.5,1.3,3.6,0.4
		c0.4-0.4,0.7-0.8,0.9-1.4c2.8-11.6-4.3-23.3-15.9-26.1C1571.5,1676.9,1569.9,1676.7,1568.3,1676.6L1568.3,1676.6z M1577,1715.5
		h-3.2c-0.6,0-1.1-0.5-1.1-1.1c0-0.6,0.5-1.1,1.1-1.1h3.2c0.6,0,1.1,0.5,1.1,1.1C1578.1,1715,1577.6,1715.5,1577,1715.5L1577,1715.5
		z M1578.1,1710.5c0,0.6-0.5,1.1-1.1,1.1h-3.2h-0.1h-4.2c-0.6,0-1.1-0.5-1.1-1.1s0.5-1.1,1.1-1.1h7.2c0,0,0,0,0,0h0.1
		C1577.6,1709.4,1578.1,1709.9,1578.1,1710.5C1578.1,1710.5,1578.1,1710.5,1578.1,1710.5L1578.1,1710.5z"/>
	<path id="Caminho_2" class="st0" d="M1573,1686.9h-4.3c0.2-0.5,0.3-1.1,0.2-1.6c-0.3-1.3-1.4-2.2-2.8-2.2h-1.6
		c0.2-0.5,0.3-1.1,0.2-1.6c-0.3-1.3-1.4-2.2-2.8-2.2h-2.8c-0.4,0-0.8,0.4-0.8,0.8l0,0l0,0c0,0.4,0.4,0.8,0.8,0.8l0,0h2.9
		c0.5,0,1,0.4,1.1,0.9c0.1,0.6-0.2,1.2-0.8,1.3c-0.1,0-0.1,0-0.2,0h-2.9c-0.4,0-0.8,0.4-0.8,0.8l0,0l0,0c0,0.4,0.4,0.8,0.8,0.8l0,0
		h2.9h0.1h4.1c0.5,0,1,0.4,1.1,0.9c0.1,0.6-0.2,1.2-0.8,1.3c-0.1,0-0.1,0-0.2,0h-7.2c-0.4,0-0.8,0.4-0.8,0.8l0,0l0,0
		c0,0.4,0.4,0.8,0.8,0.8l0,0h7.1c0,0,0,0,0.1,0h6.7c0.7,0,1.2,0.6,1.2,1.2v0.2c0,0.7-0.6,1.2-1.2,1.2l-13.1,0
		c-0.9,0-1.6,0.7-1.6,1.6v5.9c0,0.6-0.1,1.2-0.3,1.8c-0.2,0.8-1,1.4-1.8,1.3c-0.3,0-0.6-0.1-0.9-0.2c-0.2-0.2-0.2-0.8-0.2-1.3
		c0-0.2,0-0.3,0-0.4v-1.9c0-0.7-0.2-1.5-0.6-2.1l0,0l-3.1-3.8c-0.3-0.4-0.8-0.7-1.4-0.9c-1.3-0.3-2.6,0.5-2.9,1.7
		c-0.4,1.6-0.6,3.2-0.7,4.8c-0.2,12,9.3,21.8,21.2,22.1c0,0,0.1,0,0.1,0h0c0.3,0,0.6-0.2,0.7-0.5c0.2-0.4,0-0.9-0.4-1.1
		c-0.1,0-0.2-0.1-0.3-0.1c-11.1-0.2-19.9-9.3-19.7-20.3c0,0,0-0.1,0-0.1c0-1.5,0.2-3,0.6-4.5c0.1-0.4,0.6-0.7,1-0.6
		c0.2,0,0.3,0.1,0.4,0.3l3.1,3.8c0.2,0.3,0.3,0.7,0.3,1.1v1.9c0,0.1,0,0.2,0,0.4c-0.1,0.9,0.1,1.8,0.6,2.5c0.6,0.5,1.3,0.8,2.1,0.7
		c1.5,0,2.9-0.9,3.3-2.4c0.3-0.8,0.4-1.6,0.4-2.4v-5.8l0,0l13.1,0c1.6,0,2.9-1.3,2.9-2.9v-0.2
		C1575.9,1688.2,1574.6,1686.9,1573,1686.9C1573,1686.9,1573,1686.9,1573,1686.9z"/>
	<g id="Grupo_1" transform="translate(1595.775 1681.522)">
		<path id="Caminho_3" class="st0" d="M0,8.1c-0.1-4.1,3.2-7.4,7.2-7.4c0.1,0,0.3,0,0.4,0c1.3,0,2.6,0.2,3.8,0.7
			c0.8,0.4,1.1,0.7,1.1,1.2c0,0.4-0.2,0.7-0.6,0.7c0,0,0,0,0,0c-0.4,0-1.7-1.1-4.2-1.1C4.6,2.1,1.9,4.5,1.7,7.7c0,0.2,0,0.3,0,0.5
			c-0.1,3.1,2.2,5.7,5.3,5.8c0.1,0,0.3,0,0.4,0c2.7,0,5-1.7,5.1-4.6H8.5c-0.4,0-0.7-0.3-0.7-0.7c0,0,0,0,0-0.1v0
			C7.8,8.3,8.1,8,8.4,8c0,0,0,0,0.1,0H13c0.4-0.1,0.8,0.2,0.9,0.6c0,0.1,0,0.1,0,0.2c0.2,3.5-2.4,6.5-5.9,6.7c-0.2,0-0.5,0-0.7,0
			c-3.9,0.1-7.2-3-7.3-7C0,8.4,0,8.3,0,8.1z"/>
		<path id="Caminho_4" class="st0" d="M16,13.4V0.9c-0.1-0.4,0.2-0.8,0.7-0.8c0.1,0,0.1,0,0.2,0c0.4,0,0.8,0.3,0.8,0.7
			c0,0,0,0.1,0,0.1v12.3c0,0.7,0.4,1,0.9,1c0.5,0,0.8-0.2,1.1-0.2c0.3,0,0.5,0.3,0.5,0.5c0,0,0,0,0,0c0,0.3-0.2,0.6-0.4,0.8
			c-0.5,0.2-1,0.3-1.5,0.3c-1.1,0.1-2-0.7-2.2-1.7C16,13.7,16,13.5,16,13.4z"/>
		<path id="Caminho_5" class="st0" d="M20.8,10.4c0-2.8,2.3-5.1,5.2-5c2.8,0,5,2.3,5,5c0,2.8-2.2,5.1-5,5.2c-2.8,0-5.1-2.2-5.2-5
			C20.8,10.5,20.8,10.5,20.8,10.4z M29.4,10.4c0.1-1.9-1.4-3.5-3.4-3.6s-3.5,1.4-3.6,3.4c0,0.1,0,0.1,0,0.2
			c-0.1,1.9,1.4,3.5,3.3,3.6s3.5-1.4,3.6-3.3C29.4,10.7,29.4,10.6,29.4,10.4z"/>
		<path id="Caminho_6" class="st0" d="M43.3,10.4c0.1,2.7-1.9,5-4.6,5.1c0,0-0.1,0-0.1,0c-1.5,0-2.9-0.7-3.7-2.1v1.1
			c0,0.4-0.3,0.8-0.8,0.9s-0.8-0.3-0.9-0.8c0,0,0-0.1,0-0.1V1c0-0.5,0.3-0.9,0.8-0.9c0.4,0,0.8,0.3,0.8,0.7c0,0.1,0,0.1,0,0.2v6.5
			c0.7-1.4,2.1-2.2,3.6-2.1c2.6,0,4.7,2.1,4.7,4.8C43.3,10.2,43.3,10.3,43.3,10.4z M41.6,10.4c0.1-1.8-1.3-3.4-3.1-3.5
			c-0.1,0-0.2,0-0.2,0c-1.8,0-3.3,1.5-3.3,3.3c0,0.1,0,0.2,0,0.3c-0.1,1.9,1.3,3.5,3.1,3.6c0.1,0,0.1,0,0.2,0c1.9,0,3.4-1.5,3.4-3.4
			C41.7,10.6,41.7,10.5,41.6,10.4L41.6,10.4z"/>
		<path id="Caminho_7" class="st0" d="M44.7,10.4c0-2.8,2.3-5.1,5.1-5.1c2.8,0,5.1,2.3,5.1,5.1c0,2.8-2.3,5.1-5.1,5.1
			C47,15.5,44.7,13.3,44.7,10.4C44.7,10.4,44.7,10.4,44.7,10.4z M53.3,10.4c0.1-1.9-1.4-3.5-3.4-3.6s-3.5,1.4-3.6,3.4
			c0,0.1,0,0.1,0,0.2c-0.1,1.9,1.4,3.5,3.3,3.6s3.5-1.4,3.6-3.3C53.3,10.7,53.3,10.6,53.3,10.4z"/>
	</g>
	<g id="Grupo_2" transform="translate(1596.465 1699.414)">
		<path id="Caminho_8" class="st0" d="M0,7.7c0-4.6,3.6-7.4,7.6-7.4c1.1,0,2.1,0.2,3.1,0.6c0.6,0.2,0.9,0.8,0.9,1.4
			c0,0.7-0.4,1.1-1,1.1c-0.3,0-0.5-0.1-0.8-0.2C9.3,3.1,8.6,3,7.9,3C5.3,2.8,3.1,4.8,3,7.3c0,0.1,0,0.2,0,0.4c0,2.6,2.1,4.8,4.7,4.8
			c0.1,0,0.3,0,0.4,0c0.8,0,1.5-0.1,2.2-0.3c0.2-0.1,0.4-0.1,0.7-0.1c0.5,0,0.9,0.5,0.9,1.1c0,0,0,0,0,0c0,0.6-0.3,1.1-0.8,1.4
			c-1,0.4-2.1,0.7-3.3,0.6C3.6,15.2,0,12.4,0,7.7z"/>
		<path id="Caminho_9" class="st0" d="M23.9,6.6v6.9c0,1-0.5,1.5-1.4,1.5c-0.8,0-1.4-0.5-1.4-1.3c0-0.1,0-0.2,0-0.3v-0.2
			c-0.6,1.2-1.9,1.9-3.2,1.8c-2.7-0.1-4.9-2.3-4.8-5c0,0,0,0,0-0.1c-0.1-2.7,2-4.9,4.6-5.1c0.1,0,0.1,0,0.2,0
			c1.3-0.1,2.5,0.6,3.2,1.7V6.6c-0.1-0.7,0.5-1.4,1.2-1.5c0.1,0,0.1,0,0.2,0c0.7,0,1.4,0.5,1.4,1.3C23.9,6.5,23.9,6.6,23.9,6.6z
			 M21.2,10.1c0.1-1.3-1-2.5-2.3-2.5c-0.1,0-0.2,0-0.2,0c-1.4-0.1-2.5,1-2.6,2.4c0,0.1,0,0.1,0,0.2c0,1.4,1.1,2.5,2.4,2.6
			c0,0,0.1,0,0.1,0c1.4,0.1,2.5-1,2.6-2.4C21.2,10.2,21.2,10.2,21.2,10.1z"/>
		<path id="Caminho_10" class="st0" d="M27.5,14.9c-0.8-0.3-1.4-0.7-1.4-1.5c0-0.5,0.3-1,0.8-1c0.4,0,0.8,0.3,1.6,0.4
			c0.4,0.1,0.9,0.1,1.3,0.1c0.8,0,1.3-0.3,1.3-0.8c0-0.6-0.5-0.7-1.9-1.1c-1.8-0.5-3.1-1.2-3.1-3c0-1.9,1.8-3,4-3
			c0.8,0,1.6,0.1,2.4,0.4c0.6,0.2,1,0.5,1,1.2c0,0.7-0.4,1-0.8,1c-0.4,0-0.7-0.1-1.1-0.2c-0.4-0.1-0.8-0.2-1.3-0.2
			c-0.8,0-1.3,0.3-1.3,0.8c0,0.5,0.6,0.7,1.8,1c1.7,0.5,3,1.1,3,3c0,1.9-1.6,3.2-4.2,3.2C29,15.2,28.2,15.1,27.5,14.9z"/>
		<path id="Caminho_11" class="st0" d="M42.2,13.7c0,0.4-0.2,0.8-0.6,1.1c-0.6,0.3-1.3,0.4-2,0.4c-2,0-3.1-1.1-3.1-3.2V7.3h-0.7
			c-0.5,0-1-0.4-1-1c0,0,0,0,0,0c0-0.5,0.4-1,0.9-1c0,0,0,0,0.1,0h0.7V3.6c-0.1-0.8,0.5-1.5,1.3-1.5c0.8-0.1,1.5,0.5,1.5,1.3
			c0,0.1,0,0.1,0,0.2v1.6h1.8c0.5,0,1,0.4,1,0.9c0,0,0,0,0,0.1c0,0.5-0.4,1-0.9,1c0,0,0,0,0,0h-1.8v4.4c0,0.9,0.4,1.3,1.1,1.3
			c0.3,0,0.6-0.1,0.9-0.1C41.8,12.8,42.2,13.2,42.2,13.7C42.2,13.6,42.2,13.7,42.2,13.7z"/>
		<path id="Caminho_12" class="st0" d="M43.8,1.6c0-0.9,0.7-1.6,1.6-1.6c0,0,0.1,0,0.1,0c0.9,0.1,1.6,0.8,1.5,1.7
			c-0.1,0.9-0.8,1.6-1.7,1.5C44.5,3.2,43.8,2.5,43.8,1.6z M44.3,13.6v-7c-0.1-0.8,0.5-1.5,1.3-1.5c0.8-0.1,1.5,0.5,1.5,1.3
			c0,0.1,0,0.1,0,0.2v7c0.1,0.8-0.5,1.5-1.3,1.5c-0.8,0.1-1.5-0.5-1.5-1.3C44.3,13.8,44.3,13.7,44.3,13.6z"/>
		<path id="Caminho_13" class="st0" d="M59.3,9v4.6c0.1,0.8-0.5,1.5-1.3,1.5c-0.8,0.1-1.5-0.5-1.5-1.3c0-0.1,0-0.1,0-0.2V9.2
			c0.1-0.9-0.5-1.8-1.5-1.9c-0.1,0-0.3,0-0.4,0c-1.1-0.1-2,0.8-2,1.9c0,0.1,0,0.2,0,0.3v4.1c0.1,0.8-0.5,1.5-1.3,1.5
			c-0.8,0.1-1.5-0.5-1.5-1.3c0-0.1,0-0.1,0-0.2V6.7c0-1,0.5-1.6,1.4-1.6c0.8,0,1.3,0.5,1.3,1.6C53.1,5.6,54.3,5,55.5,5
			C57.8,5,59.3,6.3,59.3,9z"/>
		<path id="Caminho_14" class="st0" d="M71.8,6.8v6.1c0,4.1-2.5,6.1-5.9,6.1c-1.3,0.1-2.6-0.2-3.8-0.8c-0.4-0.2-0.6-0.7-0.5-1.1
			c-0.1-0.6,0.4-1.1,0.9-1.2c0.3,0.1,0.6,0.1,0.9,0.3c0.7,0.3,1.4,0.4,2.2,0.4c1.9,0,3.2-1,3.2-2.9v-0.5c-0.8,1-1.9,1.5-3.2,1.5
			c-2.4,0-4.4-2-4.4-4.4c0-0.1,0-0.2,0-0.3c-0.2-2.5,1.7-4.6,4.2-4.8c0.1,0,0.1,0,0.2,0c1.3,0,2.5,0.6,3.3,1.6
			C68.8,6,69.3,5.3,70,5.2c0.1,0,0.2,0,0.3,0C71.3,5.2,71.8,5.7,71.8,6.8z M68.8,9.9c0-1.3-1-2.5-2.4-2.5c0,0-0.1,0-0.1,0
			c-1.4,0-2.5,1.1-2.5,2.5c0,1.4,1.1,2.5,2.5,2.5C67.7,12.4,68.8,11.3,68.8,9.9z"/>
	</g>
</g>
</svg>
