<svg xmlns="http://www.w3.org/2000/svg" width="32.2" height="27.3" viewBox="0 0 32.2 27.3">
  <g id="Grupo_1988" transform="translate(-33.6 -182.4)">
    <path id="Caminho_366" d="M63.3,182.4H36a2.433,2.433,0,0,0-2.4,2.4v20.1a2.433,2.433,0,0,0,2.4,2.4h1.1v.3a2.112,2.112,0,0,0,2.1,2.1,2.051,2.051,0,0,0,2.1-2.1v-.3H58v.2a2.1,2.1,0,1,0,4.2,0v-.2h1.2a2.433,2.433,0,0,0,2.4-2.4V184.8A2.6,2.6,0,0,0,63.3,182.4ZM39.8,207.6a.6.6,0,1,1-1.2,0v-.3h1.2v.3Zm20.8,0a.6.6,0,1,1-1.2,0v-.2h1.2v.2Zm3.6-2.7a.9.9,0,0,1-.9.9H36a.9.9,0,0,1-.9-.9V184.8a.9.9,0,0,1,.9-.9H63.3a.9.9,0,0,1,.9.9Z" fill="#7241dc"/>
    <path id="Caminho_367" d="M60.2,185.6H39.1a1.9,1.9,0,0,0-1.9,1.9v14.7a1.9,1.9,0,0,0,1.9,1.9H60.3a1.9,1.9,0,0,0,1.9-1.9V187.5A2.059,2.059,0,0,0,60.2,185.6Zm.4,16.6a.43.43,0,0,1-.4.4H39.1a.43.43,0,0,1-.4-.4V187.5a.43.43,0,0,1,.4-.4H60.3a.43.43,0,0,1,.4.4v14.7Z" fill="#7241dc"/>
  </g>
</svg>
