<svg xmlns="http://www.w3.org/2000/svg" width="72.467" height="36.785" viewBox="0 0 72.467 36.785">
  <g id="Grupo_155" data-name="Grupo 155" transform="translate(-923.766 -251.882)">
    <g id="Grupo_153" data-name="Grupo 153" transform="translate(923.766 251.882)">
      <path id="Caminho_3" data-name="Caminho 3" d="M1701.857,1701.693a7.342,7.342,0,0,1,7.659-7.435,9.641,9.641,0,0,1,3.839.731c.772.365,1.056.711,1.056,1.158a.672.672,0,0,1-.609.731c-.447,0-1.747-1.056-4.165-1.056a5.778,5.778,0,0,0-6.115,5.891,5.54,5.54,0,0,0,5.648,5.81c2.7,0,5.038-1.707,5.058-4.571h-3.92a.662.662,0,0,1-.671-.711v-.041a.662.662,0,0,1,.711-.67h4.551a.756.756,0,0,1,.853.833,6.3,6.3,0,0,1-6.6,6.724A7.138,7.138,0,0,1,1701.857,1701.693Z" transform="translate(-1701.857 -1693.547)" fill="#7241dc"/>
      <path id="Caminho_4" data-name="Caminho 4" d="M1752.225,1705.385v-12.514a.759.759,0,0,1,.812-.853.769.769,0,0,1,.813.853v12.311c0,.732.386.975.853.975.508,0,.792-.223,1.1-.223a.508.508,0,0,1,.468.548.843.843,0,0,1-.427.752,3.053,3.053,0,0,1-1.462.325A1.964,1.964,0,0,1,1752.225,1705.385Z" transform="translate(-1736.236 -1692.018)" fill="#7241dc"/>
      <path id="Caminho_5" data-name="Caminho 5" d="M1767.522,1714.015a5.089,5.089,0,0,1,10.177,0,5.089,5.089,0,1,1-10.177,0Zm8.552.02a3.465,3.465,0,1,0-6.927,0,3.468,3.468,0,1,0,6.927,0Z" transform="translate(-1746.677 -1703.594)" fill="#7241dc"/>
      <path id="Caminho_6" data-name="Caminho 6" d="M1816.811,1702.7a4.857,4.857,0,0,1-4.714,5.12,4.083,4.083,0,0,1-3.656-2.052v1.057a.815.815,0,1,1-1.626,0v-13.551c0-.548.264-.874.813-.874a.767.767,0,0,1,.813.874v6.5a3.9,3.9,0,0,1,3.636-2.113A4.752,4.752,0,0,1,1816.811,1702.7Zm-1.666.02a3.353,3.353,0,0,0-3.393-3.555,3.318,3.318,0,0,0-3.332,3.555,3.371,3.371,0,0,0,3.332,3.616A3.417,3.417,0,0,0,1815.144,1702.721Z" transform="translate(-1773.497 -1692.279)" fill="#7241dc"/>
      <path id="Caminho_7" data-name="Caminho 7" d="M1842.784,1714.015a5.089,5.089,0,0,1,10.178,0,5.089,5.089,0,1,1-10.178,0Zm8.552.02a3.465,3.465,0,1,0-6.927,0,3.468,3.468,0,1,0,6.927,0Z" transform="translate(-1798.048 -1703.594)" fill="#7241dc"/>
    </g>
    <g id="Grupo_154" data-name="Grupo 154" transform="translate(924.457 269.774)">
      <path id="Caminho_8" data-name="Caminho 8" d="M1704.032,1756.908c0-4.571,3.576-7.375,7.639-7.375a7.2,7.2,0,0,1,3.088.569,1.478,1.478,0,0,1,.914,1.382c0,.731-.406,1.117-.975,1.117a3.49,3.49,0,0,1-.752-.182,7.886,7.886,0,0,0-2.011-.285,4.674,4.674,0,0,0-4.957,4.754,4.769,4.769,0,0,0,5.079,4.835,7.906,7.906,0,0,0,2.214-.345,2.22,2.22,0,0,1,.65-.142.979.979,0,0,1,.894,1.077,1.519,1.519,0,0,1-.792,1.4,7.624,7.624,0,0,1-3.27.63C1707.628,1764.343,1704.032,1761.519,1704.032,1756.908Z" transform="translate(-1704.032 -1749.168)" fill="#7241dc"/>
      <path id="Caminho_9" data-name="Caminho 9" d="M1756.184,1765.857v6.907c0,.955-.467,1.524-1.382,1.544a1.36,1.36,0,0,1-1.422-1.544v-.162a3.383,3.383,0,0,1-3.21,1.788,4.91,4.91,0,0,1-4.794-5.079,4.846,4.846,0,0,1,4.814-5.059,3.361,3.361,0,0,1,3.19,1.686v-.081a1.356,1.356,0,0,1,1.422-1.5A1.328,1.328,0,0,1,1756.184,1765.857Zm-2.763,3.454a2.436,2.436,0,0,0-2.56-2.539,2.475,2.475,0,0,0-2.58,2.539,2.5,2.5,0,0,0,2.58,2.56A2.464,2.464,0,0,0,1753.421,1769.311Z" transform="translate(-1732.252 -1759.214)" fill="#7241dc"/>
      <path id="Caminho_10" data-name="Caminho 10" d="M1787.651,1774.1c-.792-.264-1.381-.731-1.381-1.483,0-.548.284-1,.812-1,.366,0,.792.285,1.6.427a7.222,7.222,0,0,0,1.3.122c.833,0,1.341-.325,1.341-.813,0-.589-.549-.711-1.869-1.1-1.787-.508-3.068-1.239-3.068-2.986,0-1.91,1.788-3.027,4.043-3.027a9.752,9.752,0,0,1,2.377.366c.589.2,1.036.548,1.036,1.178,0,.65-.386,1.016-.813,1.016a7.253,7.253,0,0,1-1.077-.223,4.855,4.855,0,0,0-1.28-.183c-.772,0-1.321.285-1.321.772,0,.508.63.691,1.788,1.036,1.686.549,3.027,1.117,3.027,2.966,0,1.889-1.6,3.21-4.225,3.21A8.565,8.565,0,0,1,1787.651,1774.1Z" transform="translate(-1760.164 -1759.214)" fill="#7241dc"/>
      <path id="Caminho_11" data-name="Caminho 11" d="M1821.228,1766.637a1.22,1.22,0,0,1-.589,1.057,4.693,4.693,0,0,1-2.032.427c-2.032,0-3.088-1.138-3.088-3.21v-4.733h-.712a.969.969,0,0,1-.954-1.016.951.951,0,0,1,.954-1h.712v-1.6a1.416,1.416,0,1,1,2.824,0v1.6h1.768a.951.951,0,0,1,.954,1,.969.969,0,0,1-.954,1.016h-1.768v4.388c0,.914.406,1.28,1.117,1.28a6.146,6.146,0,0,0,.914-.122A.838.838,0,0,1,1821.228,1766.637Z" transform="translate(-1778.991 -1752.924)" fill="#7241dc"/>
      <path id="Caminho_12" data-name="Caminho 12" d="M1842.077,1750.007a1.607,1.607,0,0,1,1.727-1.625,1.628,1.628,0,1,1-1.727,1.625Zm.488,12.006v-7.029a1.425,1.425,0,1,1,2.844,0v7.029a1.425,1.425,0,1,1-2.844,0Z" transform="translate(-1798.255 -1748.382)" fill="#7241dc"/>
      <path id="Caminho_13" data-name="Caminho 13" d="M1870.1,1768.234v4.571a1.426,1.426,0,1,1-2.844,0v-4.347a1.723,1.723,0,0,0-1.889-1.93,1.951,1.951,0,0,0-2.032,2.174v4.1a1.416,1.416,0,1,1-2.824,0v-6.927c0-1,.467-1.585,1.361-1.585.833,0,1.341.549,1.341,1.564a3.459,3.459,0,0,1,3.149-1.605C1868.635,1764.252,1870.1,1765.552,1870.1,1768.234Z" transform="translate(-1810.836 -1759.214)" fill="#7241dc"/>
      <path id="Caminho_14" data-name="Caminho 14" d="M1907.425,1766.023v6.074c0,4.083-2.5,6.054-5.912,6.054a7.432,7.432,0,0,1-3.779-.833,1.251,1.251,0,0,1-.548-1.1,1.073,1.073,0,0,1,.934-1.158,3.238,3.238,0,0,1,.894.284,5.858,5.858,0,0,0,2.153.427c1.95,0,3.23-.975,3.23-2.9v-.549a3.9,3.9,0,0,1-3.169,1.524,4.414,4.414,0,0,1-4.368-4.754,4.479,4.479,0,0,1,4.368-4.774,3.931,3.931,0,0,1,3.271,1.625,1.339,1.339,0,0,1,1.463-1.5C1906.917,1764.438,1907.425,1764.987,1907.425,1766.023Zm-2.946,3.128a2.439,2.439,0,0,0-2.5-2.519,2.5,2.5,0,1,0,2.5,2.519Z" transform="translate(-1835.648 -1759.258)" fill="#7241dc"/>
    </g>
  </g>
</svg>
