<?xml version="1.0" encoding="utf-8"?>
<!-- Generator: Adobe Illustrator 25.4.1, SVG Export Plug-In . SVG Version: 6.00 Build 0)  -->
<svg version="1.1" id="Camada_1" xmlns="http://www.w3.org/2000/svg" xmlns:xlink="http://www.w3.org/1999/xlink" x="0px" y="0px"
	 viewBox="0 0 52.7 53" style="enable-background:new 0 0 52.7 53;" xml:space="preserve">
<style type="text/css">
	.st0{fill:#4F5257;stroke:#4F5257;stroke-width:0.5;stroke-miterlimit:10;}
	.st1{fill:#4F5257;}
</style>
<g>
	<g>
		<path class="st0" d="M51.8,24c-3-3.8-6.8-6.9-11.1-9.1c-4.4-2.2-9.1-3.3-14-3.4c-0.1,0-0.7,0-0.8,0c-4.9,0.1-9.6,1.2-14,3.4
			c-4.3,2.2-8.1,5.3-11,9.1c-1.1,1.5-1.1,3.5,0,5c3,3.8,6.8,6.9,11.1,9.1c4.4,2.2,9.1,3.3,14,3.4c0.1,0,0.7,0,0.8,0
			c4.9-0.1,9.6-1.2,14-3.4c4.3-2.1,8.1-5.3,11.1-9.1C53,27.5,53,25.5,51.8,24z M12.9,36.1c-4-2-7.6-4.9-10.3-8.5C2,27,2,26,2.5,25.3
			c2.8-3.5,6.3-6.5,10.3-8.5c1.1-0.6,2.3-1.1,3.5-1.5c-3,2.7-5,6.7-5,11.1s1.9,8.4,5,11.1C15.2,37.2,14,36.7,12.9,36.1z M26.4,39.3
			c-7.1,0-12.8-5.7-12.8-12.8s5.7-12.8,12.8-12.8s12.8,5.7,12.8,12.8S33.4,39.3,26.4,39.3z M50.2,27.7c-2.8,3.5-6.3,6.5-10.3,8.5
			c-1.1,0.6-2.3,1.1-3.5,1.5c3-2.7,5-6.7,5-11.1s-1.9-8.4-5-11.1c1.2,0.4,2.3,0.9,3.5,1.5c4,2,7.6,4.9,10.3,8.5
			C50.7,26,50.7,27,50.2,27.7z"/>
	</g>
</g>
<g>
	<g>
		<path class="st1" d="M26.4,21c-3,0-5.5,2.5-5.5,5.5s2.5,5.5,5.5,5.5s5.5-2.5,5.5-5.5C31.8,23.5,29.4,21,26.4,21z M26.4,29.8
			c-1.8,0-3.3-1.5-3.3-3.3s1.5-3.3,3.3-3.3s3.3,1.5,3.3,3.3C29.7,28.3,28.2,29.8,26.4,29.8z"/>
	</g>
</g>
<circle class="st1" cx="26.4" cy="26.3" r="4.4"/>
</svg>
