<svg xmlns="http://www.w3.org/2000/svg" width="23.787" height="27.072" viewBox="0 0 23.787 27.072">
  <g id="Grupo_7" data-name="Grupo 7" transform="translate(2.005 0)">
    <path id="Caminho_359" data-name="Caminho 359" d="M421.284,19.434a.771.771,0,0,0-.771.771V21.62A1.376,1.376,0,0,1,419.138,23H416.6V9.41a2.375,2.375,0,0,0-.693-1.671l-.075-.075L408.2,3.387a1.3,1.3,0,0,1,.169-.011h10.765a1.377,1.377,0,0,1,1.375,1.375V6.168a.771.771,0,1,0,1.542,0V4.751a2.92,2.92,0,0,0-2.917-2.916H408.373A2.915,2.915,0,0,0,406.1,2.921c-.011.014-.023.028-.034.044a2.9,2.9,0,0,0-.614,1.787V23.163a2.457,2.457,0,0,0,1.311,2.177l5.965,3.155a3.15,3.15,0,0,0,1.542.412,2.552,2.552,0,0,0,1.287-.33A2.108,2.108,0,0,0,416.6,26.7V24.534h2.538a2.92,2.92,0,0,0,2.917-2.917V20.2a.771.771,0,0,0-.771-.766ZM415.059,26.7a.56.56,0,0,1-.273.547,1.418,1.418,0,0,1-1.312-.1l-5.984-3.166a.917.917,0,0,1-.49-.813V4.751a1.387,1.387,0,0,1,.025-.259l7.854,4.4a.824.824,0,0,1,.181.513Z" transform="translate(-407.457 -1.835)" fill="#4f5257"/>
    <path id="Caminho_360" data-name="Caminho 360" d="M441.343,19.6l-3.383-3.383a.771.771,0,0,0-1.09,1.09l1.991,1.991H431.6a.771.771,0,0,0,0,1.542h7.417L436.8,23.06a.771.771,0,0,0,1.09,1.09l3.459-3.46a.77.77,0,0,0,0-1.09Z" transform="translate(-419.789 -8.715)" fill="#4f5257"/>
  </g>
</svg>
