<svg xmlns="http://www.w3.org/2000/svg" width="24.698" height="27.28" viewBox="0 0 24.698 27.28">
  <path id="Caminho_357" data-name="Caminho 357" d="M346.685,19.644v.006a.708.708,0,0,1-.707-.708v-5a8.83,8.83,0,0,0-6.189-8.416,2.787,2.787,0,1,0-5.249,0,8.828,8.828,0,0,0-6.188,8.41v5a.709.709,0,0,1-.708.708,2.83,2.83,0,0,0,0,5.659h6.6a3.017,3.017,0,1,0,5.839,0h6.6a2.83,2.83,0,0,0,0-5.659Zm-9.52-16.237a1.181,1.181,0,0,1,1.016,1.784,8.773,8.773,0,0,0-2.031,0,1.181,1.181,0,0,1,1.015-1.784Zm0,24.074a1.41,1.41,0,0,1-1.186-2.172h2.372a1.409,1.409,0,0,1-1.186,2.172ZM346.75,23.7H327.644a1.222,1.222,0,0,1-.065-2.444h.065a2.318,2.318,0,0,0,2.315-2.315v-5a7.206,7.206,0,1,1,14.411,0v5a2.317,2.317,0,0,0,2.315,2.315,1.222,1.222,0,0,1,.065,2.444Z" transform="translate(-324.815 -1.801)" fill="#4f5257"/>
</svg>
